HIERARCHY
ROOT hip
{
	OFFSET 0.000000 0.000000 0.000000
	CHANNELS 6 Xposition Yposition Zposition Zrotation Yrotation Xrotation 
	JOINT lhipjoint
	{
		OFFSET 0.000000 0.000000 0.000000
		CHANNELS 3 Zrotation Yrotation Xrotation
		JOINT lfemur
		{
			OFFSET 1.363060 -1.794630 0.839290
			CHANNELS 3 Zrotation Yrotation Xrotation
			JOINT ltibia
			{
				OFFSET 2.448110 -6.726130 0.000000
				CHANNELS 3 Zrotation Yrotation Xrotation
				JOINT lfoot
				{
					OFFSET 2.562200 -7.039590 0.000000
					CHANNELS 3 Zrotation Yrotation Xrotation
					JOINT ltoes
					{
						OFFSET 0.157640 -0.433110 2.322550
						CHANNELS 3 Zrotation Yrotation Xrotation
						End Site
						{
							OFFSET 0.000000 0.000000 0.000000
						}
					}
				}
			}
		}
	}
	JOINT rhipjoint
	{
		OFFSET 0.000000 0.000000 0.000000
		CHANNELS 3 Zrotation Yrotation Xrotation
		JOINT rfemur
		{
			OFFSET -1.305520 -1.794630 0.839290
			CHANNELS 3 Zrotation Yrotation Xrotation
			JOINT rtibia
			{
				OFFSET -2.542530 -6.985550 0.000000
				CHANNELS 3 Zrotation Yrotation Xrotation
				JOINT rfoot
				{
					OFFSET -2.568260 -7.056230 0.000000
					CHANNELS 3 Zrotation Yrotation Xrotation
					JOINT rtoes
					{
						OFFSET -0.164730 -0.452590 2.363150
						CHANNELS 3 Zrotation Yrotation Xrotation
						End Site
						{
							OFFSET 0.000000 0.000000 0.000000
						}
					}
				}
			}
		}
	}
	JOINT lowerback
	{
		OFFSET 0.000000 0.000000 0.000000
		CHANNELS 3 Zrotation Yrotation Xrotation
		JOINT upperback
		{
			OFFSET 0.028270 2.035590 -0.193380
			CHANNELS 3 Zrotation Yrotation Xrotation
			JOINT thorax
			{
				OFFSET 0.056720 2.048850 -0.042750
				CHANNELS 3 Zrotation Yrotation Xrotation
				JOINT lowerneck
				{
					OFFSET 0.000000 0.000000 0.000000
					CHANNELS 3 Zrotation Yrotation Xrotation
					JOINT upperneck
					{
						OFFSET -0.054170 1.746240 0.172020
						CHANNELS 3 Zrotation Yrotation Xrotation
						JOINT head
						{
							OFFSET 0.104070 1.761360 -0.123970
							CHANNELS 3 Zrotation Yrotation Xrotation
							End Site
							{
								OFFSET 0.000000 0.000000 0.000000
							}
						}
					}
				}
				JOINT lclavicle
				{
					OFFSET 0.000000 0.000000 0.000000
					CHANNELS 3 Zrotation Yrotation Xrotation
					JOINT lhumerus
					{
						OFFSET 3.362410 1.200890 -0.311210
						CHANNELS 3 Zrotation Yrotation Xrotation
						JOINT lradius
						{
							OFFSET 4.983000 -0.000000 -0.000000
							CHANNELS 3 Zrotation Yrotation Xrotation
							JOINT lwrist
							{
								OFFSET 3.483560 -0.000000 -0.000000
								CHANNELS 3 Zrotation Yrotation Xrotation
								JOINT lhand
								{
									OFFSET 0.000000 0.000000 0.000000
									CHANNELS 3 Zrotation Yrotation Xrotation
									JOINT lfingers
									{
										OFFSET 0.715260 -0.000000 -0.000000
										CHANNELS 3 Zrotation Yrotation Xrotation
										End Site
										{
											OFFSET 0.000000 0.000000 0.000000
										}
									}
								}
								JOINT lthumb
								{
									OFFSET 0.000000 0.000000 0.000000
									CHANNELS 3 Zrotation Yrotation Xrotation
									End Site
									{
										OFFSET 0.000000 0.000000 0.000000
									}
								}
							}
						}
					}
				}
				JOINT rclavicle
				{
					OFFSET 0.000000 0.000000 0.000000
					CHANNELS 3 Zrotation Yrotation Xrotation
					JOINT rhumerus
					{
						OFFSET -3.136600 1.374050 -0.404650
						CHANNELS 3 Zrotation Yrotation Xrotation
						JOINT rradius
						{
							OFFSET -5.241900 -0.000000 -0.000000
							CHANNELS 3 Zrotation Yrotation Xrotation
							JOINT rwrist
							{
								OFFSET -3.444170 -0.000000 -0.000000
								CHANNELS 3 Zrotation Yrotation Xrotation
								JOINT rhand
								{
									OFFSET 0.000000 0.000000 0.000000
									CHANNELS 3 Zrotation Yrotation Xrotation
									JOINT rfingers
									{
										OFFSET -0.622530 -0.000000 -0.000000
										CHANNELS 3 Zrotation Yrotation Xrotation
										End Site
										{
											OFFSET 0.000000 0.000000 0.000000
										}
									}
								}
								JOINT rthumb
								{
									OFFSET 0.000000 0.000000 0.000000
									CHANNELS 3 Zrotation Yrotation Xrotation
									End Site
									{
										OFFSET 0.000000 0.000000 0.000000
									}
								}
							}
						}
					}
				}
			}
		}
	}
}
MOTION
Frames: 12
Frame Time: 0.008333
38.660060 7.607093 0.458147 -70.908418 85.328918 -72.184726 7.167927 5.420982 2.605517 141.154507 54.896044 33.512029 40.564337 4.957119 164.615533 17.102171 -38.074358 -68.922746 5.662600 -14.093300 -43.612300 -6.994623 -3.398367 -3.320134 11.149572 -32.705368 -111.541526 -38.719237 -13.565240 150.992550 5.649373 49.532536 8.367387 -0.052500 -1.479200 4.068500 -0.139358 3.162744 42.918905 1.386976 9.424985 4.199290 4.380060 5.638281 15.966381 8.660697 -1.884014 -3.146058 -15.438624 -0.480349 9.660181 -5.239700 -0.316100 2.111500 1.128307 5.575808 2.696668 -87.517230 -31.597412 55.477862 52.384953 -63.391488 -24.930459 0.386198 1.427899 4.110401 50.097514 -13.227603 -17.733900 -7.125000 0.000000 0.000000 14.162900 7.073700 -12.715800 3.530448 -2.965161 3.556258 60.032535 19.631979 25.528666 -46.612519 54.855887 -17.018650 0.357743 -2.905628 -19.429467 -11.661456 11.462557 -2.788500 7.125000 0.000000 0.000000 11.163000 -15.478000 7.933200 
38.657601 7.599713 0.456610 -70.904077 85.334190 -72.210145 7.166363 5.417199 2.610839 141.085080 54.864976 33.463206 40.556764 4.938028 164.691035 17.066234 -38.042647 -68.808940 5.647000 -14.077300 -43.548000 -6.993579 -3.404114 -3.315316 11.082561 -32.700317 -111.572954 -38.710198 -13.573178 150.992625 5.736248 49.564881 8.799376 -0.058600 -1.562100 4.297000 -0.024451 3.125572 42.846009 1.389923 9.387578 4.160475 4.348413 5.641123 15.903602 8.544298 -1.867184 -3.406077 -15.276652 -0.512085 9.743032 -5.173900 -0.346500 2.205400 1.093770 5.539568 2.675814 -87.162234 -31.758488 55.757367 53.118469 -63.624943 -25.386029 0.409959 1.465122 3.877222 49.221738 -13.466627 -17.474600 -7.125000 0.000000 0.000000 13.559800 7.046000 -12.148100 3.588365 -2.959264 3.506651 59.700479 19.924472 25.666551 -48.105416 55.537862 -17.902056 0.366026 -2.895823 -20.568662 -11.185561 11.362575 -2.631500 7.125000 0.000000 0.000000 11.519000 -15.636500 8.156700 
38.654936 7.592846 0.456200 -71.229059 85.338144 -72.579412 7.172314 5.417192 2.615628 141.006900 54.856941 33.389439 40.551833 4.919767 164.759208 17.035126 -38.062552 -68.707740 5.617400 -14.047100 -43.426200 -6.992661 -3.406804 -3.306806 11.056823 -32.781150 -111.577677 -38.707490 -13.578450 150.994618 5.802289 49.618218 9.041768 -0.060300 -1.584300 4.358200 0.132203 3.082568 42.810498 1.389137 9.352521 4.118519 4.271503 5.659410 15.824503 8.501767 -1.877451 -3.643971 -15.135581 -0.578049 9.814254 -5.130600 -0.390900 2.285600 1.066100 5.512014 2.650854 -86.804870 -31.993495 56.175156 53.705575 -63.801378 -25.735428 0.431825 1.494580 3.626402 48.427909 -13.712050 -17.261100 -7.125000 0.000000 0.000000 13.005400 6.987500 -11.638200 3.636771 -2.953265 3.464034 59.472055 20.294793 25.721622 -49.512709 56.142528 -18.741051 0.371111 -2.884620 -21.663625 -10.677233 11.281719 -2.471900 7.125000 0.000000 0.000000 11.897000 -15.779400 8.398800 
38.651246 7.585261 0.454765 -71.572843 85.345711 -72.964392 7.174428 5.423072 2.621074 140.973429 54.842080 33.372950 40.541548 4.905277 164.832656 16.998604 -37.898984 -68.598904 5.613300 -14.042800 -43.409200 -6.992040 -3.410852 -3.298461 11.028092 -32.896199 -111.585208 -38.705810 -13.584179 151.001532 5.895561 49.708146 9.339319 -0.067200 -1.672700 4.601900 0.271340 3.029312 42.788608 1.393126 9.308920 4.078195 4.234825 5.663410 15.742151 8.401240 -1.885977 -3.851584 -14.983041 -0.636771 9.853602 -5.068800 -0.430100 2.350700 1.042863 5.490969 2.627927 -86.568621 -32.306588 56.647142 54.021574 -63.888489 -25.900549 0.450167 1.514679 3.473461 47.664444 -14.032927 -17.125700 -7.125000 0.000000 0.000000 12.457100 6.831400 -11.160700 3.682280 -2.952804 3.415299 59.173426 20.757491 25.823330 -50.860569 56.690528 -19.553473 0.372384 -2.873135 -22.809032 -10.235291 11.252963 -2.338100 7.125000 0.000000 0.000000 12.232400 -15.867200 8.623100 
38.647659 7.579727 0.453023 -72.024071 85.352820 -73.438805 7.174563 5.431980 2.632312 140.964191 54.845998 33.413023 40.534138 4.891935 164.898300 16.969918 -37.754245 -68.513606 5.601900 -14.031200 -43.362400 -6.985621 -3.409247 -3.295318 10.962565 -32.910771 -111.617394 -38.702587 -13.587904 150.999991 5.933307 49.726775 9.517336 -0.063800 -1.629100 4.481800 0.460235 2.966947 42.767571 1.387605 9.255668 4.034955 4.132054 5.684104 15.665444 8.316677 -1.899775 -4.079861 -14.806380 -0.709392 9.908980 -4.999500 -0.476800 2.426000 1.018051 5.476596 2.597589 -86.280221 -32.710722 57.227052 54.226032 -63.932779 -25.986835 0.466678 1.527286 3.316392 46.938955 -14.334844 -16.981300 -7.125000 0.000000 0.000000 11.938700 6.699000 -10.705400 3.718234 -2.956507 3.370758 58.929505 21.316455 25.886368 -52.063853 57.155397 -20.280475 0.365327 -2.862297 -23.918182 -9.788927 11.317172 -2.217100 7.125000 0.000000 0.000000 12.571200 -15.865500 8.874500 
38.643251 7.573782 0.451383 -72.445977 85.363800 -73.910739 7.175140 5.441561 2.637598 140.964082 54.840717 33.436882 40.528519 4.881389 164.954412 16.931845 -37.736471 -68.389790 5.597900 -14.027000 -43.345700 -6.983440 -3.410354 -3.289243 10.904810 -33.031737 -111.598197 -38.703360 -13.593128 151.004963 6.023314 49.833868 9.739155 -0.068000 -1.681900 4.627300 0.599449 2.898275 42.769327 1.391804 9.201788 4.002566 4.100874 5.683373 15.603398 8.176865 -1.905336 -4.286671 -14.642369 -0.763064 9.938278 -4.922300 -0.513600 2.491000 0.994594 5.466887 2.571240 -86.048401 -33.174654 57.816805 54.264805 -63.934183 -25.964946 0.483032 1.528090 3.288888 46.434366 -14.717503 -17.026600 -7.125000 0.000000 0.000000 11.538700 6.392300 -10.400600 3.757016 -2.967997 3.320126 58.639570 21.983742 25.993508 -53.173233 57.558379 -20.945485 0.359395 -2.843627 -25.014768 -9.271234 11.331027 -2.070800 7.125000 0.000000 0.000000 12.956000 -15.925100 9.143600 
38.638537 7.568657 0.449743 -72.884080 85.373069 -74.368388 7.171228 5.454468 2.649582 140.996623 54.849838 33.530640 40.517421 4.874332 165.015009 16.902848 -37.422293 -68.312825 5.629900 -14.059900 -43.477900 -6.975197 -3.405608 -3.290509 10.825441 -32.991651 -111.632627 -38.700666 -13.592470 151.009555 6.031353 49.812769 9.858804 -0.064200 -1.634200 4.495800 0.779695 2.829772 42.751421 1.389933 9.150334 3.970328 4.021246 5.698846 15.557409 8.107613 -1.929645 -4.534231 -14.517467 -0.843393 10.002345 -4.876200 -0.565500 2.572700 0.974831 5.462030 2.544242 -85.816221 -33.686413 58.469352 54.201784 -63.910352 -25.874983 0.500115 1.518064 3.385671 46.122854 -15.147453 -17.212200 -7.125000 0.000000 0.000000 11.247500 5.967900 -10.220700 3.795570 -2.980478 3.267804 58.320875 22.698126 26.141715 -54.154580 57.891156 -21.523110 0.357903 -2.813938 -26.041029 -8.647586 11.226467 -1.885400 7.125000 0.000000 0.000000 13.408900 -16.114100 9.425000 
38.633310 7.562918 0.447898 -73.476491 85.362344 -75.004208 7.176712 5.464595 2.656123 140.996299 54.865629 33.529296 40.509528 4.862388 165.073929 16.882174 -37.238873 -68.256600 5.642400 -14.072600 -43.529200 -6.970683 -3.402621 -3.284700 10.787264 -33.051880 -111.616975 -38.701516 -13.594281 151.009936 6.075168 49.873075 9.937939 -0.060700 -1.589300 4.372000 0.975209 2.751529 42.786925 1.389360 9.093363 3.930152 3.941802 5.712368 15.466498 8.001011 -1.960908 -4.702275 -14.359894 -0.927824 10.035820 -4.806400 -0.615400 2.628700 0.956594 5.458769 2.516448 -85.570180 -34.212395 59.131751 54.042378 -63.858209 -25.721747 0.517556 1.499724 3.684440 45.961807 -15.555733 -17.456500 -7.125000 0.000000 0.000000 11.056100 5.527700 -10.134500 3.823227 -2.992462 3.216064 57.982735 23.482788 26.383863 -54.901821 58.125767 -21.944600 0.360737 -2.778043 -27.037569 -7.994145 11.048726 -1.689700 7.125000 0.000000 0.000000 13.880300 -16.377100 9.695100 
38.627775 7.559125 0.446156 -73.777126 85.366840 -75.341086 7.172471 5.468649 2.668028 140.975297 54.932323 33.601427 40.498451 4.863671 165.127420 16.837344 -36.860990 -68.130878 5.690000 -14.121100 -43.724700 -6.963371 -3.396674 -3.284744 10.693845 -33.015504 -111.599003 -38.701147 -13.593835 151.007283 6.076722 49.874647 9.941671 -0.056100 -1.528000 4.202900 1.163909 2.684795 42.813049 1.380918 9.042535 3.896973 3.827374 5.736608 15.402691 7.960297 -2.007048 -4.899426 -14.222341 -1.035921 10.089056 -4.757500 -0.677400 2.693800 0.939184 5.462610 2.487551 -85.320495 -34.814389 59.829848 53.769959 -63.771366 -25.495661 0.534070 1.472102 4.068914 45.934931 -16.011589 -17.811200 -7.125000 0.000000 0.000000 10.937200 4.990200 -10.134700 3.850398 -3.011136 3.162218 57.603629 24.389493 26.686773 -55.349227 58.254117 -22.168830 0.363030 -2.735626 -28.023053 -7.297163 10.863941 -1.489200 7.125000 0.000000 0.000000 14.380300 -16.651800 9.978600 
38.621933 7.555128 0.444516 -74.313495 85.372604 -75.913923 7.171825 5.478646 2.678133 140.985454 54.986953 33.662411 40.488596 4.863179 165.174062 16.806908 -36.519449 -68.051219 5.735300 -14.166800 -43.909900 -6.955440 -3.387884 -3.284816 10.624284 -32.984954 -111.575551 -38.700473 -13.595234 150.994220 6.067813 49.876300 9.878428 -0.048400 -1.420300 3.906200 1.328124 2.603929 42.849933 1.381604 8.980321 3.865928 3.767714 5.739733 15.323965 7.893437 -2.055397 -5.029678 -14.124360 -1.131982 10.131560 -4.717800 -0.732200 2.742800 0.922893 5.467418 2.463100 -85.135688 -35.422655 60.505169 53.539899 -63.693823 -25.298623 0.547388 1.451692 4.510572 45.844265 -16.301029 -17.987700 -7.125000 0.000000 0.000000 10.819700 4.682100 -10.085600 3.878483 -3.030590 3.101370 57.155282 25.355665 27.070274 -55.662378 58.336308 -22.304973 0.367622 -2.690806 -29.045692 -6.631180 10.656294 -1.300800 7.125000 0.000000 0.000000 14.860300 -16.944600 10.236800 
38.615476 7.551643 0.441646 -74.689735 85.381262 -76.334800 7.165457 5.493095 2.696042 141.031329 54.972744 33.815924 40.475344 4.866619 165.206711 16.790969 -36.045073 -68.031483 5.792200 -14.223900 -44.142100 -6.946666 -3.379648 -3.286132 10.506462 -32.943058 -111.534304 -38.699575 -13.596083 150.987499 6.067743 49.874286 9.883256 -0.045300 -1.373100 3.776000 1.523916 2.514451 42.920255 1.372450 8.902819 3.828606 3.649146 5.753354 15.214870 7.833860 -2.125665 -5.092041 -14.023150 -1.250387 10.142857 -4.672700 -0.793900 2.763400 0.903043 5.476054 2.435901 -84.928394 -36.062333 61.240784 53.302420 -63.598141 -25.094377 0.553953 1.435470 4.943013 45.692514 -16.346516 -17.917400 -7.125000 0.000000 0.000000 10.725500 4.708400 -9.989200 3.897503 -3.042838 3.043816 56.704580 26.340771 27.492860 -55.886727 58.384766 -22.377397 0.378255 -2.638767 -30.136938 -5.906005 10.345923 -1.098400 7.125000 0.000000 0.000000 15.384500 -17.339900 10.487000 
38.608608 7.548671 0.440621 -75.207938 85.384245 -76.911381 7.166147 5.497971 2.707231 141.002166 55.051974 33.849944 40.465003 4.871323 165.244451 16.759913 -35.632162 -67.957306 5.858600 -14.289900 -44.411600 -6.940966 -3.371497 -3.283018 10.434264 -32.943755 -111.481230 -38.702230 -13.595003 150.979688 6.052837 49.886283 9.748034 -0.037700 -1.252600 3.444200 1.702481 2.425602 43.022765 1.372993 8.834894 3.786559 3.588504 5.755445 15.070841 7.708166 -2.195540 -5.096273 -13.886863 -1.363447 10.147029 -4.599700 -0.851600 2.772900 0.886101 5.479592 2.412849 -84.797005 -36.705020 61.992728 53.033931 -63.489052 -24.868005 0.556939 1.422945 5.410070 45.515680 -16.294945 -17.753200 -7.125000 0.000000 0.000000 10.640700 4.863000 -9.875700 3.915704 -3.054825 2.977232 56.195495 27.330025 27.969115 -56.092260 58.422092 -22.440559 0.401838 -2.586576 -31.400500 -5.264037 9.919828 -0.917100 7.125000 0.000000 0.000000 15.860100 -17.834400 10.657700 
